<svg id="Layer_1" data-name="Layer 1" xmlns="http://www.w3.org/2000/svg" xmlns:xlink="http://www.w3.org/1999/xlink" viewBox="0 0 917.24 81.72"><defs><style>.cls-1{fill:#010101;}.cls-2{opacity:0.79;}.cls-3,.cls-4,.cls-5{opacity:0.41;}.cls-3{fill:url(#linear-gradient);}.cls-4{fill:url(#linear-gradient-2);}.cls-5{fill:url(#linear-gradient-3);}.cls-6{fill:#2f7a97;}</style><linearGradient id="linear-gradient" y1="40.86" x2="595.93" y2="40.86" gradientUnits="userSpaceOnUse"><stop offset="0.05" stop-color="#131824"/><stop offset="0.43" stop-color="#192532" stop-opacity="0.93"/><stop offset="0.67" stop-color="#2d4f62" stop-opacity="0.7"/><stop offset="0.86" stop-color="#4e97b3" stop-opacity="0.3"/><stop offset="0.96" stop-color="#68cdf1" stop-opacity="0"/></linearGradient><linearGradient id="linear-gradient-2" x1="538.93" y1="40.86" x2="646.93" y2="40.86" xlink:href="#linear-gradient"/><linearGradient id="linear-gradient-3" x1="583.93" y1="40.86" x2="669.28" y2="40.86" xlink:href="#linear-gradient"/></defs><title>top-auctions-bar</title><rect class="cls-1" width="917.24" height="81.72"/><g class="cls-2"><polygon class="cls-3" points="595.93 0 514.08 81.72 0 81.72 0 0 595.93 0"/><polygon class="cls-4" points="618.93 0 538.93 81.72 569.93 81.72 646.93 0 618.93 0"/><polygon class="cls-5" points="659.93 0 583.93 81.72 592.93 81.72 669.28 0 659.93 0"/></g><path class="cls-6" d="M243.42,32.37H228V58h-8.16V32.37h-5.66q-5.33,0-5.76,5.14h-7.73q1.06-13.06,14.78-13.06h28Z"/><path class="cls-6" d="M290.27,24.45v16.9a20.47,20.47,0,0,1-1.13,7,14.35,14.35,0,0,1-3.26,5.26,13.93,13.93,0,0,1-5.26,3.29,20.82,20.82,0,0,1-7.1,1.13H245.68V41.2a20.14,20.14,0,0,1,1.13-6.94,14.07,14.07,0,0,1,8.57-8.64,20,20,0,0,1,7.1-1.18Zm-8.16,7.92H262.62a17.31,17.31,0,0,0-4.22.43,5.62,5.62,0,0,0-2.69,1.46A5.91,5.91,0,0,0,254.27,37a18.17,18.17,0,0,0-.43,4.32v8.74h19.49a17.77,17.77,0,0,0,4.13-.41,5.72,5.72,0,0,0,2.71-1.42,5.8,5.8,0,0,0,1.49-2.74,17.25,17.25,0,0,0,.46-4.32Z"/><path class="cls-6" d="M296.42,58V24.45h44.64v6.43Q341.05,45,325.74,45H308.37V37.5h19.1a5.43,5.43,0,0,0,3.89-1.32,6.43,6.43,0,0,0,1.78-3.82H304.57V58Z"/><path class="cls-6" d="M409.31,58H401.1V45H373.74V58h-8.16V41.2a20.65,20.65,0,0,1,1.13-7.06A14.3,14.3,0,0,1,370,28.86a13.92,13.92,0,0,1,5.26-3.29,20.82,20.82,0,0,1,7.1-1.13h27ZM401.1,32.37H386.32a36.45,36.45,0,0,0-5.93.38,11.5,11.5,0,0,0-3.5,1.08,4.46,4.46,0,0,0-1.82,1.68,7.43,7.43,0,0,0-.79,2.14H401.1Z"/><path class="cls-6" d="M423.76,24.45V40.81q0,9.26,12.58,9.26h13.49V24.45H458V58H434.22a24.12,24.12,0,0,1-7.7-1.15,15.88,15.88,0,0,1-5.86-3.41,15.12,15.12,0,0,1-3.74-5.57,20.49,20.49,0,0,1-1.32-7.63V24.45Z"/><path class="cls-6" d="M505.45,58h-42V41.2a20.66,20.66,0,0,1,1.13-7.06,14.29,14.29,0,0,1,3.26-5.28,13.93,13.93,0,0,1,5.26-3.29,21,21,0,0,1,7.15-1.13h25.15v7.92h-25q-8.78,0-8.78,9v8.74h33.79Z"/><path class="cls-6" d="M551.58,32.37H536.12V58H528V32.37H522.3q-5.33,0-5.76,5.14h-7.73q1.05-13.06,14.78-13.06h28Z"/><path class="cls-6" d="M564.25,58h-8.16V24.45h8.16Z"/><path class="cls-6" d="M614.89,24.45v16.9a20.48,20.48,0,0,1-1.13,7,14.35,14.35,0,0,1-3.26,5.26,13.93,13.93,0,0,1-5.26,3.29,20.82,20.82,0,0,1-7.1,1.13H570.3V41.2a20.15,20.15,0,0,1,1.13-6.94A14.07,14.07,0,0,1,580,25.62a20,20,0,0,1,7.1-1.18Zm-8.16,7.92H587.24a17.31,17.31,0,0,0-4.22.43,5.62,5.62,0,0,0-2.69,1.46A5.9,5.9,0,0,0,578.89,37a18.17,18.17,0,0,0-.43,4.32v8.74h19.49a17.76,17.76,0,0,0,4.13-.41,5.72,5.72,0,0,0,2.71-1.42,5.8,5.8,0,0,0,1.49-2.74,17.27,17.27,0,0,0,.46-4.32Z"/><path class="cls-6" d="M666.54,58H657.9A104.44,104.44,0,0,0,644.29,42.5,42.31,42.31,0,0,0,631.07,34q-.48-.14-1-.36l-1.18-.46Q629,35,629,35.49V58h-8V24.45h7.06a47.82,47.82,0,0,1,7.9,3.36,67.19,67.19,0,0,1,7.54,4.7,80,80,0,0,1,7.1,5.76q3.43,3.12,6.6,6.53l1.49,1.58q-.14-1.49-.14-2.21V24.45h8Z"/><path class="cls-6" d="M713.63,32.37h-27.5q-5.14,0-5.76,5.14h33.41v6.38Q713.77,58,698.51,58H672.59v-8h27.65a5.58,5.58,0,0,0,3.91-1.3,6.19,6.19,0,0,0,1.8-3.74H672.59V38.61q0-14.16,15.31-14.16h25.73Z"/></svg>