<svg id="Layer_1" data-name="Layer 1" xmlns="http://www.w3.org/2000/svg" xmlns:xlink="http://www.w3.org/1999/xlink" viewBox="0 0 917.24 81.72"><defs><style>.cls-1{opacity:0.79;}.cls-2,.cls-3,.cls-4{opacity:0.41;}.cls-2{fill:url(#linear-gradient);}.cls-3{fill:url(#linear-gradient-2);}.cls-4{fill:url(#linear-gradient-3);}.cls-5{fill:#2d7996;}</style><linearGradient id="linear-gradient" y1="40.86" x2="595.93" y2="40.86" gradientUnits="userSpaceOnUse"><stop offset="0.05" stop-color="#121723"/><stop offset="0.44" stop-color="#172533" stop-opacity="0.93"/><stop offset="0.67" stop-color="#265468" stop-opacity="0.69"/><stop offset="0.87" stop-color="#40a4c1" stop-opacity="0.28"/><stop offset="0.96" stop-color="#52dbff" stop-opacity="0"/></linearGradient><linearGradient id="linear-gradient-2" x1="538.93" y1="40.86" x2="646.93" y2="40.86" xlink:href="#linear-gradient"/><linearGradient id="linear-gradient-3" x1="583.93" y1="40.86" x2="669.28" y2="40.86" xlink:href="#linear-gradient"/></defs><title>completed</title><rect width="917.24" height="81.72"/><g class="cls-1"><polygon class="cls-2" points="595.93 0 514.08 81.72 0 81.72 0 0 595.93 0"/><polygon class="cls-3" points="618.93 0 538.93 81.72 569.93 81.72 646.93 0 618.93 0"/><polygon class="cls-4" points="659.93 0 583.93 81.72 592.93 81.72 669.28 0 659.93 0"/></g><path class="cls-5" d="M267.42,55.84h-42V39a20.65,20.65,0,0,1,1.13-7.06,14.3,14.3,0,0,1,3.26-5.28,13.93,13.93,0,0,1,5.26-3.29,21,21,0,0,1,7.15-1.13h25.15v7.92h-25q-8.78,0-8.78,9v8.74h33.79Z"/><path class="cls-5" d="M316.91,22.24v16.9a20.47,20.47,0,0,1-1.13,7,14.35,14.35,0,0,1-3.26,5.26,13.93,13.93,0,0,1-5.26,3.29,20.82,20.82,0,0,1-7.1,1.13H272.32V39a20.14,20.14,0,0,1,1.13-6.94A14.07,14.07,0,0,1,282,23.42a20,20,0,0,1,7.1-1.18Zm-8.16,7.92H289.26a17.31,17.31,0,0,0-4.22.43,5.62,5.62,0,0,0-2.69,1.46,5.91,5.91,0,0,0-1.44,2.76,18.17,18.17,0,0,0-.43,4.32v8.74H300a17.77,17.77,0,0,0,4.13-.41A5.72,5.72,0,0,0,306.81,46a5.8,5.8,0,0,0,1.49-2.74,17.25,17.25,0,0,0,.46-4.32Z"/><path class="cls-5" d="M322.82,22.24h33.7a19.87,19.87,0,0,1,6.84,1.13,15.58,15.58,0,0,1,5.3,3.17,14.26,14.26,0,0,1,3.43,4.87,15.57,15.57,0,0,1,1.22,6.24V55.84h-8.16V39q0-8.88-8.64-8.88H330.93V55.84h-8.11Zm20.59,12h8.21V55.84h-8.21Z"/><path class="cls-5" d="M379.6,55.84V22.24h44.64v6.43q0,14.16-15.31,14.16H391.55V35.3h19.1A5.43,5.43,0,0,0,414.54,34a6.43,6.43,0,0,0,1.78-3.82H387.76V55.84Z"/><path class="cls-5" d="M437.49,22.24V47.87H455q6.48,0,8.21-5h8.45q-1.1,6.48-5.38,9.74t-11.14,3.26H429.33V22.24Z"/><path class="cls-5" d="M516.45,30.16H482V35.3h33.6v7.54H482.41a6.8,6.8,0,0,0,2.69,3.74,10.15,10.15,0,0,0,5.66,1.3h25.68v8H490.62a19.74,19.74,0,0,1-7-1.18,14.88,14.88,0,0,1-5.3-3.34A14.28,14.28,0,0,1,475,46.07a19.78,19.78,0,0,1-1.15-6.94V22.24h42.62Z"/><path class="cls-5" d="M562.24,30.16H546.78V55.84h-8.16V30.16H533q-5.33,0-5.76,5.14h-7.73q1.05-13.06,14.78-13.06h28Z"/><path class="cls-5" d="M609,30.16H574.57V35.3h33.6v7.54H575a6.8,6.8,0,0,0,2.69,3.74,10.15,10.15,0,0,0,5.66,1.3H609v8H583.21a19.74,19.74,0,0,1-7-1.18,14.88,14.88,0,0,1-5.3-3.34,14.28,14.28,0,0,1-3.34-5.26,19.78,19.78,0,0,1-1.15-6.94V22.24H609Z"/><path class="cls-5" d="M648.16,30.16H613.93V22.24h42.38v16.9a20.45,20.45,0,0,1-1.13,7,14.35,14.35,0,0,1-3.26,5.26,13.93,13.93,0,0,1-5.26,3.29,20.82,20.82,0,0,1-7.1,1.13H613.93V35.3h8.16V47.87h17.28q8.78,0,8.78-8.88Z"/></svg>