<svg id="Layer_1" data-name="Layer 1" xmlns="http://www.w3.org/2000/svg" xmlns:xlink="http://www.w3.org/1999/xlink" viewBox="0 0 917.24 81.72"><defs><style>.cls-1{opacity:0.79;}.cls-2,.cls-3,.cls-4{opacity:0.41;}.cls-2{fill:url(#linear-gradient);}.cls-3{fill:url(#linear-gradient-2);}.cls-4{fill:url(#linear-gradient-3);}.cls-5{fill:#2d7996;}</style><linearGradient id="linear-gradient" y1="40.86" x2="595.93" y2="40.86" gradientUnits="userSpaceOnUse"><stop offset="0.05" stop-color="#121723"/><stop offset="0.44" stop-color="#172533" stop-opacity="0.93"/><stop offset="0.67" stop-color="#265468" stop-opacity="0.69"/><stop offset="0.87" stop-color="#40a4c1" stop-opacity="0.28"/><stop offset="0.96" stop-color="#52dbff" stop-opacity="0"/></linearGradient><linearGradient id="linear-gradient-2" x1="538.93" y1="40.86" x2="646.93" y2="40.86" xlink:href="#linear-gradient"/><linearGradient id="linear-gradient-3" x1="583.93" y1="40.86" x2="669.28" y2="40.86" xlink:href="#linear-gradient"/></defs><title>new</title><rect width="917.24" height="81.72"/><g class="cls-1"><polygon class="cls-2" points="595.93 0 514.08 81.72 0 81.72 0 0 595.93 0"/><polygon class="cls-3" points="618.93 0 538.93 81.72 569.93 81.72 646.93 0 618.93 0"/><polygon class="cls-4" points="659.93 0 583.93 81.72 592.93 81.72 669.28 0 659.93 0"/></g><path class="cls-5" d="M421,58h-8.64A104.41,104.41,0,0,0,398.74,42.5,42.31,42.31,0,0,0,385.51,34q-.48-.14-1-.36l-1.18-.46q.14,1.83.14,2.35V58h-8V24.45h7.06a47.83,47.83,0,0,1,7.9,3.36,67.1,67.1,0,0,1,7.54,4.7,79.89,79.89,0,0,1,7.1,5.76q3.43,3.12,6.6,6.53l1.49,1.58Q413,44.9,413,44.17V24.45h8Z"/><path class="cls-5" d="M469.61,32.37H435.15V37.5h33.6V45H435.58a6.8,6.8,0,0,0,2.69,3.74,10.15,10.15,0,0,0,5.66,1.3h25.68v8H443.79a19.74,19.74,0,0,1-7-1.18,14.9,14.9,0,0,1-5.3-3.34,14.27,14.27,0,0,1-3.34-5.26A19.77,19.77,0,0,1,427,41.34V24.45h42.62Z"/><path class="cls-5" d="M527.59,58H491.3a19.85,19.85,0,0,1-6.84-1.13,15.54,15.54,0,0,1-5.3-3.17,14.23,14.23,0,0,1-3.43-4.87,15.56,15.56,0,0,1-1.22-6.24V24.45h8.16V41.29q0,8.78,8.64,8.78h28.18V24.45h8.11ZM505.7,46H497.5V24.45h8.21Z"/></svg>