<svg id="Layer_1" data-name="Layer 1" xmlns="http://www.w3.org/2000/svg" xmlns:xlink="http://www.w3.org/1999/xlink" viewBox="0 0 917.24 81.72"><defs><style>.cls-1{opacity:0.79;}.cls-2,.cls-3,.cls-4{opacity:0.41;}.cls-2{fill:url(#linear-gradient);}.cls-3{fill:url(#linear-gradient-2);}.cls-4{fill:url(#linear-gradient-3);}.cls-5{fill:#2d7996;}</style><linearGradient id="linear-gradient" y1="40.86" x2="595.93" y2="40.86" gradientUnits="userSpaceOnUse"><stop offset="0.05" stop-color="#121723"/><stop offset="0.44" stop-color="#172533" stop-opacity="0.93"/><stop offset="0.67" stop-color="#265468" stop-opacity="0.69"/><stop offset="0.87" stop-color="#40a4c1" stop-opacity="0.28"/><stop offset="0.96" stop-color="#52dbff" stop-opacity="0"/></linearGradient><linearGradient id="linear-gradient-2" x1="538.93" y1="40.86" x2="646.93" y2="40.86" xlink:href="#linear-gradient"/><linearGradient id="linear-gradient-3" x1="583.93" y1="40.86" x2="669.28" y2="40.86" xlink:href="#linear-gradient"/></defs><title>nintendo</title><rect width="917.24" height="81.72"/><g class="cls-1"><polygon class="cls-2" points="595.93 0 514.08 81.72 0 81.72 0 0 595.93 0"/><polygon class="cls-3" points="618.93 0 538.93 81.72 569.93 81.72 646.93 0 618.93 0"/><polygon class="cls-4" points="659.93 0 583.93 81.72 592.93 81.72 669.28 0 659.93 0"/></g><path class="cls-5" d="M315.72,55.84h-8.64a104.41,104.41,0,0,0-13.61-15.55,42.31,42.31,0,0,0-13.22-8.54q-.48-.14-1-.36L278,30.93q.14,1.83.14,2.35V55.84h-8V22.24h7.06a47.83,47.83,0,0,1,7.9,3.36,67.1,67.1,0,0,1,7.54,4.7,79.89,79.89,0,0,1,7.1,5.76q3.43,3.12,6.6,6.53l1.49,1.58q-.14-1.49-.14-2.21V22.24h8Z"/><path class="cls-5" d="M330.22,55.84h-8.16V22.24h8.16Z"/><path class="cls-5" d="M382.11,55.84h-8.64a104.41,104.41,0,0,0-13.61-15.55,42.31,42.31,0,0,0-13.22-8.54q-.48-.14-1-.36l-1.18-.46q.14,1.83.14,2.35V55.84h-8V22.24h7.06a47.83,47.83,0,0,1,7.9,3.36,67.1,67.1,0,0,1,7.54,4.7,79.89,79.89,0,0,1,7.1,5.76q3.43,3.12,6.6,6.53l1.49,1.58q-.14-1.49-.14-2.21V22.24h8Z"/><path class="cls-5" d="M429.34,30.16H413.88V55.84h-8.16V30.16h-5.66q-5.33,0-5.76,5.14h-7.73q1.06-13.06,14.78-13.06h28Z"/><path class="cls-5" d="M476.14,30.16H441.67V35.3h33.6v7.54H442.11a6.8,6.8,0,0,0,2.69,3.74,10.15,10.15,0,0,0,5.66,1.3h25.68v8H450.31a19.74,19.74,0,0,1-7-1.18,14.9,14.9,0,0,1-5.3-3.34,14.27,14.27,0,0,1-3.34-5.26,19.77,19.77,0,0,1-1.15-6.94V22.24h42.62Z"/><path class="cls-5" d="M526.54,55.84H517.9a104.44,104.44,0,0,0-13.61-15.55,42.31,42.31,0,0,0-13.22-8.54q-.48-.14-1-.36l-1.18-.46q.14,1.83.14,2.35V55.84h-8V22.24h7.06A47.82,47.82,0,0,1,496,25.6a67.19,67.19,0,0,1,7.54,4.7,80,80,0,0,1,7.1,5.76q3.43,3.12,6.6,6.53l1.49,1.58q-.14-1.49-.14-2.21V22.24h8Z"/><path class="cls-5" d="M567.1,30.16H532.87V22.24h42.38v16.9a20.45,20.45,0,0,1-1.13,7,14.35,14.35,0,0,1-3.26,5.26,13.93,13.93,0,0,1-5.26,3.29,20.82,20.82,0,0,1-7.1,1.13H532.87V35.3H541V47.87h17.28q8.78,0,8.78-8.88Z"/><path class="cls-5" d="M625.47,22.24v16.9a20.48,20.48,0,0,1-1.13,7,14.35,14.35,0,0,1-3.26,5.26,13.93,13.93,0,0,1-5.26,3.29,20.82,20.82,0,0,1-7.1,1.13H580.87V39A20.15,20.15,0,0,1,582,32.06a14.07,14.07,0,0,1,8.57-8.64,20,20,0,0,1,7.1-1.18Zm-8.16,7.92H597.82a17.31,17.31,0,0,0-4.22.43,5.62,5.62,0,0,0-2.69,1.46,5.9,5.9,0,0,0-1.44,2.76,18.17,18.17,0,0,0-.43,4.32v8.74h19.49a17.76,17.76,0,0,0,4.13-.41A5.72,5.72,0,0,0,615.36,46a5.8,5.8,0,0,0,1.49-2.74,17.27,17.27,0,0,0,.46-4.32Z"/></svg>