<svg id="Layer_1" data-name="Layer 1" xmlns="http://www.w3.org/2000/svg" xmlns:xlink="http://www.w3.org/1999/xlink" viewBox="0 0 917.24 81.72"><defs><style>.cls-1{opacity:0.79;}.cls-2,.cls-3,.cls-4{opacity:0.41;}.cls-2{fill:url(#linear-gradient);}.cls-3{fill:url(#linear-gradient-2);}.cls-4{fill:url(#linear-gradient-3);}.cls-5{fill:#2d7996;}</style><linearGradient id="linear-gradient" y1="40.86" x2="595.93" y2="40.86" gradientUnits="userSpaceOnUse"><stop offset="0.05" stop-color="#121723"/><stop offset="0.44" stop-color="#172533" stop-opacity="0.93"/><stop offset="0.67" stop-color="#265468" stop-opacity="0.69"/><stop offset="0.87" stop-color="#40a4c1" stop-opacity="0.28"/><stop offset="0.96" stop-color="#52dbff" stop-opacity="0"/></linearGradient><linearGradient id="linear-gradient-2" x1="538.93" y1="40.86" x2="646.93" y2="40.86" xlink:href="#linear-gradient"/><linearGradient id="linear-gradient-3" x1="583.93" y1="40.86" x2="669.28" y2="40.86" xlink:href="#linear-gradient"/></defs><title>ps4</title><rect width="917.24" height="81.72"/><g class="cls-1"><polygon class="cls-2" points="595.93 0 514.08 81.72 0 81.72 0 0 595.93 0"/><polygon class="cls-3" points="618.93 0 538.93 81.72 569.93 81.72 646.93 0 618.93 0"/><polygon class="cls-4" points="659.93 0 583.93 81.72 592.93 81.72 669.28 0 659.93 0"/></g><path class="cls-5" d="M373.3,55.84V22.24h44.64v6.43q0,14.16-15.31,14.16H385.25V35.3h19.1A5.43,5.43,0,0,0,408.24,34,6.43,6.43,0,0,0,410,30.16H381.46V55.84Z"/><path class="cls-5" d="M462.34,30.16h-27.5q-5.14,0-5.76,5.14h33.41v6.38q0,14.16-15.26,14.16H421.3v-8h27.65a5.58,5.58,0,0,0,3.91-1.3,6.19,6.19,0,0,0,1.8-3.74H421.3V36.4q0-14.16,15.31-14.16h25.73Z"/><path class="cls-5" d="M476.07,22.24V35.3h25.3V22.24h7.73v33.6h-7.73v-13h-33.5V22.24Z"/></svg>