<svg id="Layer_1" data-name="Layer 1" xmlns="http://www.w3.org/2000/svg" xmlns:xlink="http://www.w3.org/1999/xlink" viewBox="0 0 1366 72.93"><defs><style>.cls-1,.cls-2,.cls-3{opacity:0.41;}.cls-1{fill:url(#linear-gradient);}.cls-2{fill:url(#linear-gradient-2);}.cls-3{fill:url(#linear-gradient-3);}.cls-4,.cls-5{opacity:0.23;}.cls-4{fill:url(#linear-gradient-4);}.cls-5{fill:url(#linear-gradient-5);}.cls-6{fill:#2d7996;}.cls-7{fill:#b9b9b9;}</style><linearGradient id="linear-gradient" x1="29.94" y1="32.07" x2="625.87" y2="32.07" gradientUnits="userSpaceOnUse"><stop offset="0.05" stop-color="#121723"/><stop offset="0.44" stop-color="#172533" stop-opacity="0.93"/><stop offset="0.67" stop-color="#265468" stop-opacity="0.69"/><stop offset="0.87" stop-color="#40a4c1" stop-opacity="0.28"/><stop offset="0.96" stop-color="#52dbff" stop-opacity="0"/></linearGradient><linearGradient id="linear-gradient-2" x1="568.87" y1="32.07" x2="676.87" y2="32.07" xlink:href="#linear-gradient"/><linearGradient id="linear-gradient-3" x1="613.87" y1="32.07" x2="699.22" y2="32.07" xlink:href="#linear-gradient"/><linearGradient id="linear-gradient-4" x1="-6.36" y1="778.16" x2="-6.36" y2="249.76" gradientTransform="translate(812.6 70.67) rotate(90)" gradientUnits="userSpaceOnUse"><stop offset="0" stop-color="#fff" stop-opacity="0.5"/><stop offset="0.09" stop-color="#e8eef0" stop-opacity="0.52"/><stop offset="0.25" stop-color="#aac1c9" stop-opacity="0.56"/><stop offset="0.46" stop-color="#46788a" stop-opacity="0.62"/><stop offset="0.51" stop-color="#2b6479" stop-opacity="0.64"/><stop offset="0.62" stop-color="#31758c" stop-opacity="0.55"/><stop offset="0.8" stop-color="#3fa2bf" stop-opacity="0.31"/><stop offset="1" stop-color="#52dbff" stop-opacity="0"/></linearGradient><linearGradient id="linear-gradient-5" x1="-12.23" y1="769.8" x2="-12.23" y2="174.66" xlink:href="#linear-gradient-4"/></defs><title>topbar</title><rect x="-0.47" y="0.15" width="1366" height="72.78"/><polygon class="cls-1" points="625.87 -8.79 544.02 72.93 29.94 72.93 83.94 -8.79 625.87 -8.79"/><polygon class="cls-2" points="648.87 -8.79 568.87 72.93 599.87 72.93 676.87 -8.79 648.87 -8.79"/><polygon class="cls-3" points="689.87 -8.79 613.87 72.93 622.87 72.93 699.22 -8.79 689.87 -8.79"/><polygon class="cls-4" points="34.44 67.35 40.44 61.28 562.84 61.28 562.84 67.35 34.44 67.35"/><polygon class="cls-5" points="42.8 59.21 45.32 57.69 637.94 57.69 637.94 59.21 42.8 59.21"/><path class="cls-6" d="M68.61,14.54,38.91,61,9.32,14.54H21.58L36.53,39.61a32.34,32.34,0,0,1,2.32,4.76A18.3,18.3,0,0,1,40,42l1.34-2.32,15-25.13Z"/><path class="cls-7" d="M84.17,57.24H73.8V14.54H84.17Z"/><path class="cls-7" d="M135.77,24.61H92.28V14.54h53.86V36A26,26,0,0,1,144.71,45a18.24,18.24,0,0,1-4.15,6.68,17.7,17.7,0,0,1-6.68,4.18,26.45,26.45,0,0,1-9,1.43H92.28V31.13h10.37v16h22q11.16,0,11.16-11.29Z"/><path class="cls-7" d="M153.71,14.54h45.08q11.71,0,11.71,10.8,0,8.85-7.38,10.13a8.57,8.57,0,0,1,5.46,3.42q1.92,2.69,1.92,7.5,0,10.86-11.71,10.86H153.71Zm10.37,32.82h32q3.48,0,3.48-3.29,0-3.6-3.48-3.6H171.4V31.38H196q3.48,0,3.48-3.72,0-3.11-3.48-3.11h-32Z"/><path class="cls-7" d="M228.49,57.24H218.12V14.54h10.37Z"/><path class="cls-7" d="M280.1,24.61H236.6V14.54h53.86V36A26,26,0,0,1,289,45a18.23,18.23,0,0,1-4.15,6.68,17.7,17.7,0,0,1-6.68,4.18,26.45,26.45,0,0,1-9,1.43H236.6V31.13H247v16h22q11.16,0,11.16-11.29Z"/><path class="cls-7" d="M349.82,24.61h-35q-6.53,0-7.32,6.53H350v8.11q0,18-19.4,18H297.67V47.12H332.8a7.08,7.08,0,0,0,5-1.65,7.87,7.87,0,0,0,2.29-4.76h-42.4V32.54q0-18,19.46-18h32.7Z"/></svg>