<svg id="Layer_1" data-name="Layer 1" xmlns="http://www.w3.org/2000/svg" xmlns:xlink="http://www.w3.org/1999/xlink" viewBox="0 0 1366.91 81.72"><defs><style>.cls-1{fill:#010101;}.cls-2,.cls-5,.cls-6{opacity:0.41;}.cls-2{fill:url(#linear-gradient);}.cls-3{fill:#2f7a97;}.cls-4{fill:#b9b9b9;}.cls-5{fill:url(#linear-gradient-2);}.cls-6{fill:url(#linear-gradient-3);}</style><linearGradient id="linear-gradient" x1="1.98" y1="41.04" x2="597.91" y2="41.04" gradientUnits="userSpaceOnUse"><stop offset="0.05" stop-color="#131824"/><stop offset="0.43" stop-color="#192532" stop-opacity="0.93"/><stop offset="0.67" stop-color="#2d4f62" stop-opacity="0.7"/><stop offset="0.86" stop-color="#4e97b3" stop-opacity="0.3"/><stop offset="0.96" stop-color="#68cdf1" stop-opacity="0"/></linearGradient><linearGradient id="linear-gradient-2" x1="540.91" y1="41.04" x2="648.91" y2="41.04" xlink:href="#linear-gradient"/><linearGradient id="linear-gradient-3" x1="585.91" y1="41.04" x2="671.26" y2="41.04" xlink:href="#linear-gradient"/></defs><title>topbar</title><rect class="cls-1" x="0.91" y="-0.18" width="1366" height="81.84"/><polygon class="cls-2" points="597.91 0.18 516.06 81.9 1.98 81.9 1.98 0.18 597.91 0.18"/><path class="cls-3" d="M80.91,14.21,45.85,69,10.93,14.21H25.4L43,43.81a38.15,38.15,0,0,1,2.74,5.62,21.57,21.57,0,0,1,1.37-2.81l1.58-2.74L66.44,14.21Z"/><path class="cls-4" d="M99.27,64.61H87V14.21H99.27Z"/><path class="cls-4" d="M160.18,26.09H108.85V14.21h63.58V39.56a30.69,30.69,0,0,1-1.69,10.55,21.53,21.53,0,0,1-4.9,7.88A20.88,20.88,0,0,1,158,62.92a31.21,31.21,0,0,1-10.66,1.69H108.85V33.8h12.24V52.66H147q13.18,0,13.18-13.32Z"/><path class="cls-4" d="M181.35,14.21h53.21q13.82,0,13.82,12.74,0,10.44-8.71,12a10.11,10.11,0,0,1,6.44,4q2.27,3.17,2.27,8.86,0,12.82-13.82,12.82H181.35Zm12.24,38.74h37.73q4.1,0,4.1-3.89,0-4.25-4.1-4.25H202.23V34.08h29.09q4.1,0,4.1-4.39,0-3.67-4.1-3.67H193.59Z"/><path class="cls-4" d="M269.62,64.61H257.38V14.21h12.24Z"/><path class="cls-4" d="M330.53,26.09H279.2V14.21h63.58V39.56a30.7,30.7,0,0,1-1.69,10.55,21.53,21.53,0,0,1-4.9,7.88,20.89,20.89,0,0,1-7.88,4.93,31.21,31.21,0,0,1-10.66,1.69H279.2V33.8h12.24V52.66h25.92q13.18,0,13.18-13.32Z"/><path class="cls-4" d="M412.83,26.09H371.57q-7.71,0-8.64,7.7H413v9.58q0,21.24-22.9,21.24H351.27v-12h41.47a8.36,8.36,0,0,0,5.87-1.94,9.29,9.29,0,0,0,2.7-5.62h-50V35.45q0-21.24,23-21.24h38.59Z"/><polygon class="cls-5" points="620.91 0.18 540.91 81.9 571.91 81.9 648.91 0.18 620.91 0.18"/><polygon class="cls-6" points="661.91 0.18 585.91 81.9 594.91 81.9 671.26 0.18 661.91 0.18"/></svg>