<svg id="Layer_1" data-name="Layer 1" xmlns="http://www.w3.org/2000/svg" xmlns:xlink="http://www.w3.org/1999/xlink" viewBox="0 0 917.24 81.72"><defs><style>.cls-1{opacity:0.79;}.cls-2,.cls-3,.cls-4{opacity:0.41;}.cls-2{fill:url(#linear-gradient);}.cls-3{fill:url(#linear-gradient-2);}.cls-4{fill:url(#linear-gradient-3);}.cls-5{fill:#2d7996;}</style><linearGradient id="linear-gradient" y1="40.86" x2="595.93" y2="40.86" gradientUnits="userSpaceOnUse"><stop offset="0.05" stop-color="#121723"/><stop offset="0.44" stop-color="#172533" stop-opacity="0.93"/><stop offset="0.67" stop-color="#265468" stop-opacity="0.69"/><stop offset="0.87" stop-color="#40a4c1" stop-opacity="0.28"/><stop offset="0.96" stop-color="#52dbff" stop-opacity="0"/></linearGradient><linearGradient id="linear-gradient-2" x1="538.93" y1="40.86" x2="646.93" y2="40.86" xlink:href="#linear-gradient"/><linearGradient id="linear-gradient-3" x1="583.93" y1="40.86" x2="669.28" y2="40.86" xlink:href="#linear-gradient"/></defs><title>xboxone-01</title><rect width="917.24" height="81.72"/><g class="cls-1"><polygon class="cls-2" points="595.93 0 514.08 81.72 0 81.72 0 0 595.93 0"/><polygon class="cls-3" points="618.93 0 538.93 81.72 569.93 81.72 646.93 0 618.93 0"/><polygon class="cls-4" points="659.93 0 583.93 81.72 592.93 81.72 669.28 0 659.93 0"/></g><path class="cls-5" d="M325.55,55.84H314.08L300.83,43.55,287,55.84H275.63L295,39.19,275.54,22.24h11.62l13.3,12.19L314,22.24h11.52L306.06,38.85Z"/><path class="cls-5" d="M329.53,22.24H365q9.22,0,9.22,8.5,0,7-5.81,8a6.74,6.74,0,0,1,4.3,2.69,10,10,0,0,1,1.51,5.9q0,8.54-9.22,8.54H329.53Zm8.16,25.82h25.15q2.74,0,2.74-2.59,0-2.83-2.74-2.83H343.45V35.49h19.39q2.74,0,2.74-2.93,0-2.45-2.74-2.45H337.69Z"/><path class="cls-5" d="M424.48,22.24v16.9a20.47,20.47,0,0,1-1.13,7,14.35,14.35,0,0,1-3.26,5.26,13.93,13.93,0,0,1-5.26,3.29,20.82,20.82,0,0,1-7.1,1.13H379.89V39A20.14,20.14,0,0,1,381,32.06a14.07,14.07,0,0,1,8.57-8.64,20,20,0,0,1,7.1-1.18Zm-8.16,7.92H396.83a17.31,17.31,0,0,0-4.22.43,5.62,5.62,0,0,0-2.69,1.46,5.91,5.91,0,0,0-1.44,2.76,18.17,18.17,0,0,0-.43,4.32v8.74h19.49a17.77,17.77,0,0,0,4.13-.41A5.72,5.72,0,0,0,414.37,46a5.8,5.8,0,0,0,1.49-2.74,17.25,17.25,0,0,0,.46-4.32Z"/><path class="cls-5" d="M478.09,55.84H466.62L453.37,43.55,439.5,55.84H428.17l19.39-16.66L428.08,22.24h11.62L453,34.43l13.58-12.19h11.52L458.61,38.85Z"/><path class="cls-5" d="M546.06,22.24v16.9a20.48,20.48,0,0,1-1.13,7,14.35,14.35,0,0,1-3.26,5.26,13.93,13.93,0,0,1-5.26,3.29,20.82,20.82,0,0,1-7.1,1.13H501.47V39a20.15,20.15,0,0,1,1.13-6.94,14.07,14.07,0,0,1,8.57-8.64,20,20,0,0,1,7.1-1.18Zm-8.16,7.92H518.41a17.31,17.31,0,0,0-4.22.43,5.62,5.62,0,0,0-2.69,1.46,5.9,5.9,0,0,0-1.44,2.76,18.17,18.17,0,0,0-.43,4.32v8.74h19.49a17.76,17.76,0,0,0,4.13-.41A5.72,5.72,0,0,0,536,46a5.8,5.8,0,0,0,1.49-2.74A17.27,17.27,0,0,0,537.9,39Z"/><path class="cls-5" d="M597.71,55.84h-8.64a104.44,104.44,0,0,0-13.61-15.55,42.31,42.31,0,0,0-13.22-8.54q-.48-.14-1-.36L560,30.93q.14,1.83.14,2.35V55.84h-8V22.24h7.06a47.82,47.82,0,0,1,7.9,3.36,67.19,67.19,0,0,1,7.54,4.7,80,80,0,0,1,7.1,5.76q3.43,3.12,6.6,6.53l1.49,1.58q-.14-1.49-.14-2.21V22.24h8Z"/><path class="cls-5" d="M646.33,30.16H611.87V35.3h33.6v7.54H612.3A6.8,6.8,0,0,0,615,46.58a10.15,10.15,0,0,0,5.66,1.3h25.68v8H620.51a19.74,19.74,0,0,1-7-1.18,14.88,14.88,0,0,1-5.3-3.34,14.28,14.28,0,0,1-3.34-5.26,19.78,19.78,0,0,1-1.15-6.94V22.24h42.62Z"/></svg>